<?xml version="1.0" encoding="UTF-8"?>
<svg width="24px" height="21px" viewBox="0 0 24 21" version="1.1" xmlns="http://www.w3.org/2000/svg" xmlns:xlink="http://www.w3.org/1999/xlink">
    <title>Icon Like</title>
    <g id="Glasgow-Murals" stroke="none" stroke-width="1" fill="none" fill-rule="evenodd">
        <g id="Glasgow-Murals-–-01" transform="translate(-596.000000, -136.000000)" fill="#000000" fill-rule="nonzero">
            <g id="Mural" transform="translate(20.000000, 116.000000)">
                <path d="M588.001419,40.7923616 L587.507327,40.5151936 C587.044578,40.2380256 576,33.9139287 576,27.0954805 C576,23.1778498 579.17785,20 583.09548,20 C585.223631,20 586.95172,21.3882462 588,22.4993367 C589.048404,21.3581367 590.776492,20 592.90452,20 C596.82215,20 600,23.1778498 600,27.0954805 C600,33.8824618 588.986889,40.2381613 588.492673,40.5151936 L588.001419,40.7923616 Z M583.0969,22.0053802 C580.289064,22.0053802 578.006664,24.2877803 578.006664,27.0956162 C578.006664,31.537387 584.793645,36.5662317 588.001419,38.4786179 C591.179269,36.56617 597.996175,31.537387 597.996175,27.0956162 C597.996175,24.2877803 595.713774,22.0053802 592.905939,22.0053802 C590.932038,22.0053802 589.26534,24.0419682 588.802591,24.6589665 L588.001203,25.7375104 L587.198612,24.6577634 C586.735863,24.0407651 585.070461,22.0053802 583.096499,22.0053802 L583.0969,22.0053802 Z" id="Icon-Like"></path>
            </g>
        </g>
    </g>
</svg>